<?xml version="1.0" encoding="utf-8"?>
<!-- Generator: Adobe Illustrator 25.2.1, SVG Export Plug-In . SVG Version: 6.00 Build 0)  -->
<svg version="1.1" id="Слой_1" focusable="false"
	 xmlns="http://www.w3.org/2000/svg" xmlns:xlink="http://www.w3.org/1999/xlink" x="0px" y="0px" viewBox="0 0 1000 1000"
	 style="enable-background:new 0 0 1000 1000;" xml:space="preserve">
<style type="text/css">
	.st0{fill-rule:evenodd;clip-rule:evenodd;fill:#FFFFFF;}
</style>
<path class="st0" d="M500,0C223.9,0,0,223.9,0,500s223.9,500,500,500s500-223.9,500-500S776.1,0,500,0z M250,549.5
	c0,27.6-22.4,50-50,50s-50-22.4-50-50v-99c0-27.6,22.4-50,50-50s50,22.4,50,50V549.5z M400,799.7c0,27.8-22.2,50.3-50,50.3
	c-27.6,0-50-22.5-50-50.3V200.3c0-27.8,22.2-50.3,50-50.3c27.6,0,50,22.5,50,50.3V799.7z M550,600.5c0,27.3-22.2,49.5-50,49.5
	c-27.4,0-49.7-22.1-50-49.5v-201c0-27.4,22.2-49.5,50-49.5c27.4,0,49.7,22.1,50,49.5V600.5z M700,650.2c0,27.5-22.2,49.8-50,49.8
	c-27.6,0-50-22.6-50-49.8V349.8c0-27.5,22.2-49.8,50-49.8c27.6,0,50,22.6,50,49.8V650.2z M850,549.5c0,27.6-22.4,50-50,50
	s-50-22.4-50-50v-99c0-27.6,22.4-50,50-50s50,22.4,50,50V549.5z"/>
</svg>
