<svg xmlns="http://www.w3.org/2000/svg" width="36" height="36" viewBox="0 0 48 48"><rect width="48" height="48" rx="24" fill="black"></rect><path d="M38.716 20.4349L38.599 19.8532L33.6518 18.9889L36.5265 15.0997L36.1923 14.7341L31.9638 16.7618L32.4986 11.3767L32.0641 11.1274L29.4903 15.482L26.599 9H26.0975L26.7828 15.2659L19.5125 9.44875L18.8941 9.63158L24.4931 16.6621L13.4123 12.9723L12.9109 13.5374L22.805 19.1717L9.15041 20.3019L9 21.1496L23.1895 22.6953L11.3566 32.4848L11.858 33.1662L25.9471 25.5041L23.1561 39H24.0085L29.4067 26.302L32.6992 36.241L33.2842 35.7922L31.9304 25.687L37.0613 31.5041L37.3955 30.9723L33.468 23.759L38.95 25.7866L39 25.1718L34.0864 21.5485L38.716 20.4349Z" fill="#FFBC0D"></path></svg>